<svg width="1600" height="1100" viewBox="0 0 1600 1100" fill="none" xmlns="http://www.w3.org/2000/svg">
  <rect width="1600" height="1100" fill="#102718"/>
  <path d="M0 830C187 742 330 709 510 720C704 731 800 824 981 831C1189 839 1307 733 1600 605V1100H0V830Z" fill="#183D25"/>
  <path d="M0 895C154 821 263 796 424 810C602 825 714 912 888 921C1101 932 1323 851 1600 715V1100H0V895Z" fill="#244F31"/>
  <path d="M0 968C214 883 409 887 579 933C753 981 884 1040 1092 1015C1295 991 1457 896 1600 809V1100H0V968Z" fill="#315E3F"/>
  <circle cx="1232" cy="180" r="68" fill="#E8E4DD" fill-opacity="0.78"/>
  <path d="M171 760L318 444L463 760H171Z" fill="#0D2114"/>
  <path d="M399 760L584 344L769 760H399Z" fill="#112917"/>
  <path d="M777 760L933 412L1091 760H777Z" fill="#0D2114"/>
  <path d="M1032 760L1226 301L1422 760H1032Z" fill="#112917"/>
  <path d="M517 760L662 603L807 760H517Z" fill="#1D3F28"/>
  <rect x="720" y="690" width="186" height="108" rx="10" fill="#EFE6D8"/>
  <path d="M697 699L811 624L929 699" stroke="#8C5F2B" stroke-width="18" stroke-linecap="round" stroke-linejoin="round"/>
  <rect x="784" y="730" width="48" height="68" rx="8" fill="#C5A065"/>
  <rect x="737" y="719" width="34" height="28" rx="6" fill="#9AB0A1"/>
  <rect x="848" y="719" width="34" height="28" rx="6" fill="#9AB0A1"/>
  <path d="M628 860C720 796 936 777 1052 826" stroke="#C5A065" stroke-width="5" stroke-linecap="round" stroke-dasharray="1 17"/>
</svg>
