<svg width="128" height="128" viewBox="0 0 128 128" fill="none" xmlns="http://www.w3.org/2000/svg">
  <rect width="128" height="128" rx="34" fill="#183D25"/>
  <path d="M30 78C38 72 43 66 48 56C52 48 57 41 64 34C71 42 76 49 81 57C86 66 91 72 98 78" stroke="#E8E4DD" stroke-width="3.2" stroke-linecap="round" stroke-linejoin="round"/>
  <path d="M40 78C46 73 50 67 54 61C57 55 60 50 64 45C68 50 71 55 74 61C78 67 82 73 88 78" stroke="#E8E4DD" stroke-width="3" stroke-linecap="round" stroke-linejoin="round"/>
  <path d="M31 90C36 86 42 83 49 80C56 77 62 75 67 74C73 73 80 75 88 79C94 82 99 85 103 88" stroke="#E8E4DD" stroke-width="3" stroke-linecap="round"/>
  <path d="M37 97C43 93 49 91 56 89C64 87 72 88 80 91C87 94 93 97 98 101" stroke="#E8E4DD" stroke-width="3" stroke-linecap="round"/>
  <path d="M52 79C54 75 56 71 59 68C61 65 62 61 64 58C66 61 67 65 69 68C72 71 74 75 76 79" stroke="#E8E4DD" stroke-width="2.8" stroke-linecap="round" stroke-linejoin="round"/>
</svg>
