<svg width="24" height="24" viewBox="0 0 24 24" fill="none" xmlns="http://www.w3.org/2000/svg">
  <path d="M20 11.8C20 16.2183 16.4183 19.8 12 19.8C10.6394 19.8 9.35823 19.4605 8.23661 18.8616L4.8 19.8L5.76251 16.5086C5.03974 15.3132 4.62305 13.9107 4.62305 12.4102C4.62305 7.99187 8.20477 4.41016 12.623 4.41016C17.0413 4.41016 20.623 7.99187 20.623 12.4102C20.623 12.2062 20 11.8 20 11.8Z" stroke="#FFFFFF" stroke-width="1.8" stroke-linecap="round" stroke-linejoin="round"/>
  <path d="M9.31055 8.99609C9.48523 8.54026 9.67313 8.53125 9.83398 8.53125C9.96801 8.53125 10.1218 8.53125 10.2754 8.53906C10.4291 8.54688 10.6357 8.48047 10.8359 8.96484C11.0361 9.44922 11.5156 10.6172 11.5781 10.75C11.6406 10.8828 11.6797 11.0391 11.5859 11.1953C11.4922 11.3516 11.4453 11.4453 11.3203 11.5859C11.1953 11.7266 11.0625 11.8984 10.9531 12.0078C10.8438 12.1172 10.7266 12.2344 10.8516 12.4453C10.9766 12.6562 11.4062 13.3594 12.0391 13.9219C12.8536 14.6465 13.5404 14.8724 13.7827 14.9763C14.0251 15.0801 14.166 15.0625 14.2598 14.9219C14.3535 14.7812 14.6582 14.4219 14.7754 14.2578C14.8926 14.0938 15.0117 14.1172 15.1758 14.1797C15.3398 14.2422 16.2129 14.6719 16.3926 14.7578C16.5723 14.8438 16.6895 14.8828 16.7285 14.9453C16.7676 15.0078 16.7676 15.3281 16.6504 15.6797C16.5332 16.0312 15.9648 16.3516 15.7051 16.4297C15.4453 16.5078 15.1211 16.5469 14.7344 16.4219C14.3477 16.2969 13.8477 16.1406 13.2539 15.8828C12.6602 15.625 10.875 14.8867 9.57812 13.4922C8.28125 12.0977 7.57812 10.3828 7.32031 9.78906C7.0625 9.19531 7.11934 8.75366 7.28516 8.49609C7.45098 8.23852 7.66211 8.09766 7.85156 8.01953C8.04102 7.94141 8.25977 7.92188 8.4082 7.92188C8.55664 7.92188 8.73633 7.94141 8.9082 8.35156C9.08008 8.76172 9.31055 8.99609 9.31055 8.99609Z" fill="#FFFFFF"/>
</svg>
